<svg width="402" height="874" viewBox="0 0 402 874" fill="none" xmlns="http://www.w3.org/2000/svg">
<g opacity="0.17" clip-path="url(#clip0_31_557)">
<path d="M16.1757 698.831C25.1303 697.255 35.3783 701.111 43.0226 705.835C61.4259 717.204 49.8855 757.899 30.4059 759.803C29.5651 759.328 28.7408 758.826 27.9338 758.292C21.4355 753.971 19.8689 744.648 16.3362 736.259C12.8128 727.89 -13.0062 717.913 -6.78706 706.91C-3.89488 701.793 10.1187 699.535 16.1757 698.831Z" fill="#FFAFD3"/>
<path d="M13.7901 28.3556C45.3081 24.8212 62.2563 47.613 46.7022 75.8535C43.052 82.4815 39.2048 86.9639 31.9028 89.2693C21.7783 87.9595 20.2487 73.3687 16.7084 65.9449C12.7258 56.1792 -4.31063 52.4266 -7.14785 42.6369C-10.3562 31.5672 7.72932 29.3059 13.7901 28.3556Z" fill="#FFAFD3"/>
<path d="M15.0624 363.902C49.1215 360.477 61.8041 387.035 45.1639 414.298C41.61 420.12 37.3242 423.134 30.8287 424.65C19.2698 420.562 20.8255 406.49 14.8496 398.48C10.7396 393.306 4.20648 390.2 -0.618532 385.9C-18.1898 370.241 2.07448 364.933 15.0624 363.902Z" fill="#FFAFD3"/>
<path d="M16.3253 195.885C28.9007 194.856 37.7264 198.01 46.9792 206.582C60.3556 218.975 46.2642 258.287 30.0016 256.68C19.9369 251.158 20.9817 242.152 16.3123 233.152C12.0434 224.147 -5.68081 218.673 -7.46618 208.678C-9.28638 198.492 11.0351 196.447 16.3253 195.885Z" fill="#FFAFD3"/>
<path d="M349.532 698.853C366.657 696.365 387.291 709.561 384.315 728.261C382.508 739.608 376.381 760.839 361.64 759.426C351.981 753.644 353.189 745.827 348.836 736.526C344.749 727.798 326.476 721.857 325.285 712.376C324.969 710.047 325.644 707.696 327.146 705.89C331.836 700.233 342.741 699.453 349.532 698.853Z" fill="#FFAFD3"/>
<path d="M180.128 279.986C189.882 278.641 201.592 280.765 209.5 286.92C214.505 290.812 217.706 296.585 218.36 302.901C219.716 315.513 211.679 338.965 196.672 340.609C187.232 337.58 186.37 323.31 181.211 315.063C176.33 307.262 151.955 299.019 161.125 286.534C164.417 282.051 174.771 280.464 180.128 279.986Z" fill="#FFAFD3"/>
<path d="M346.724 363.89C361.308 363.138 379.466 366.519 383.64 382.618C387.264 396.603 379.205 420.458 363.925 424.656C351.54 421.008 353.276 407.048 347.23 398.44C343.372 393.391 337.017 390.73 332.37 386.725C314.129 370.999 332.832 364.968 346.724 363.89Z" fill="#FFAFD3"/>
<path d="M345.69 28.3821C351.143 26.9677 363.196 29.0419 368.403 31.1876C387.302 39.048 387.335 57.531 379.885 74.0157C376.321 81.8994 372.43 86.1953 364.311 89.2027C353.635 87.9377 352.601 73.1233 348.808 65.5603C344.161 56.3003 327.88 52.0699 325.388 41.9932C322.825 31.6141 338.774 29.3441 345.69 28.3821Z" fill="#FFAFD3"/>
<path d="M180.628 615.346C188.222 614.506 198.878 616.012 205.696 619.907C223.655 630.168 219.872 649.828 211.252 665.288C208.074 670.988 204.839 674.507 198.369 676.258C187.437 673.945 186.84 661.813 182.686 653.161C177.843 643.08 161.724 639.518 159.534 628.591C157.41 617.997 173.314 616.235 180.628 615.346Z" fill="#FFAFD3"/>
<path d="M11.484 531.829C20.8652 532.374 25.3898 530.476 34.8935 534.022C52.4686 540.273 56.0644 555.738 49.6363 572.071C46.2571 580.657 43.3937 587.018 34.6557 591.137C23.7291 594.59 21.1063 580.456 18.1102 572.835C13.9474 562.246 9.86621 562.05 1.8383 555.793C-16.3087 541.643 -5.1791 534.96 11.484 531.829Z" fill="#FFAFD3"/>
<path d="M350.044 195.896C354.713 195.589 359.643 196.604 364.507 197.718C393.935 204.456 387.253 242.944 367.364 255.876C366.015 256.755 364.181 257.209 362.521 256.649C351.992 251.963 353.396 241.015 348.259 232.571C343.672 224.521 326.514 218.574 325.029 209.011C323.298 197.88 344.319 196.337 350.044 195.896Z" fill="#FFAFD3"/>
<path d="M183.684 111.866C192.771 110.48 208.367 116.022 213.814 123.887C218.014 129.953 219.066 135.138 218.147 142.36C216.857 152.504 208.922 174.681 195.58 172.377C184.37 166.079 187.139 153.011 178.518 144.272C170.367 136.01 153.605 132.075 161.553 118.097C169.686 113.039 174.273 112.938 183.684 111.866Z" fill="#FFAFD3"/>
<path d="M184.638 782.872C210.6 781.939 225.632 800.667 215.113 824.838C212.322 831.248 204.753 847.21 195.27 843.369C184.666 834.816 187.313 827.119 180.339 816.836C175.798 810.142 152.109 801.709 161.122 790.046C165.812 783.974 177.817 783.358 184.638 782.872Z" fill="#FFAFD3"/>
<path d="M343.998 531.867C371.979 527.612 392.934 545.216 381.545 573.042C377.893 581.961 375.537 587.443 366.314 591.262C353.983 594.47 352.558 575.235 348.362 568.187C342.986 558.951 327.581 554.816 324.849 543.874C322.749 535.435 338.687 532.702 343.998 531.867Z" fill="#FFAFD3"/>
<path d="M249.225 777.341C273.536 775.824 275.027 796.068 250.537 804.005C240.996 805.184 233.82 803.214 230.007 793.559C233.495 783.478 238.88 779.125 249.225 777.341Z" fill="#FFAFD3"/>
<path d="M232.476 580.832C240.355 580.215 244.474 587.007 246.361 593.531C242.621 604.752 238.132 610.246 226.388 612.897C214.025 614.31 209.266 602.947 215.712 592.74C219.508 586.702 225.537 582.419 232.476 580.832Z" fill="#FFAFD3"/>
<path d="M232.155 748.876C240.472 748.347 244.628 753.589 246.477 760.992C242.736 772.884 238.7 776.839 227.076 780.488C202.344 780.581 213.034 752.88 232.155 748.876Z" fill="#FFAFD3"/>
<path d="M234.496 246.029C242.079 246.409 244.627 251.978 246.702 258.219C242.775 268.957 237.521 276.178 225.399 277.137C203.494 277.017 211.871 247.849 234.496 246.029Z" fill="#FFAFD3"/>
<path d="M416.621 22.3349C420.903 22.2238 424.255 22.445 428.048 24.3822C436.994 28.9539 434.959 39.0605 427.781 44.1611C423.722 47.043 420.604 48.1427 415.962 49.4427C406.483 49.5992 391.884 47.0768 398.8 32.6601C401.858 26.2795 410.118 23.9031 416.621 22.3349Z" fill="#FFAFD3"/>
<path d="M82.945 358.403C91.7304 358.1 94.7466 357.386 100.919 364.609C102.421 378.953 94.8048 381.825 82.4944 385.252C79.618 385.734 71.4574 384.305 69.4157 382.372C56.9617 370.583 71.8165 359.812 82.945 358.403Z" fill="#FFAFD3"/>
<path d="M414.842 358.428C424.228 357.929 438.023 359.626 432.418 374.568C430.437 379.832 421.883 383.19 416.626 384.722C393.592 389.967 389.027 361.728 414.842 358.428Z" fill="#FFAFD3"/>
<path d="M251.27 609.335C254.504 608.997 261.148 610.568 263.541 612.477C272.989 620 265.731 630.239 257.047 633.981C253.639 635.448 252.512 635.874 248.86 636.43C222.321 637.259 226.528 613.082 251.27 609.335Z" fill="#FFAFD3"/>
<path d="M84.7745 22.3557C85.3801 22.3141 85.9869 22.295 86.5936 22.2984C90.4767 22.3415 95.8138 23.5837 98.429 26.5811C101.956 30.6223 101.316 33.6371 100.992 38.5085C96.4145 45.1293 90.2068 48.2 82.5048 49.4661C56.1634 50.1437 60.3442 26.152 84.7745 22.3557Z" fill="#FFAFD3"/>
<path d="M64.9847 161.893C72.4603 161.727 75.2328 163.474 79.2062 169.676C80.2711 182.534 73.2346 190.809 60.8703 193.483L54.1277 193.432C37.2192 183.736 51.906 166.62 64.9847 161.893Z" fill="#FFAFD3"/>
<path d="M247.929 106.816C273.918 104.903 274.82 125.508 251.141 132.851C240.638 134.147 234.624 132.859 229.623 122.761C233.788 112.541 237.601 109.977 247.929 106.816Z" fill="#FFAFD3"/>
<path d="M415.821 190.332C424.952 190.031 438.322 193.156 432.619 206.409C430.083 212.29 421.818 215.401 415.968 217.184C391.106 220.116 390.91 194.459 415.821 190.332Z" fill="#FFAFD3"/>
<path d="M66.1742 497.453C72.2028 496.872 75.7763 500.175 79.1686 504.571C80.7248 519.714 72.4825 525.332 59.4027 529.538C57.1341 529.696 53.2957 528.348 51.6104 527.203C42.3321 520.884 48.4755 507.024 55.9114 501.952C60.1117 499.087 61.7747 498.522 66.1742 497.453Z" fill="#FFAFD3"/>
<path d="M63.3397 329.925C65.901 329.646 69.1045 329.861 71.7458 329.952C89.0183 339.917 75.8291 356.497 61.778 361.179C53.0274 362.935 48.61 358.039 46.5498 350.211C48.259 340.697 54.5489 333.668 63.3397 329.925Z" fill="#FFAFD3"/>
<path d="M82.3045 693.791C107.492 691.69 107.719 713.467 85.2539 719.85C59.8261 723.406 56.6809 699.758 82.3045 693.791Z" fill="#FFAFD3"/>
<path d="M252.069 274.439C276.604 273.521 271.497 299.066 246.168 301.248C237.44 301.174 234.118 297.872 229.773 290.971C233.353 279.39 240.555 275.261 252.069 274.439Z" fill="#FFAFD3"/>
<path d="M414.526 693.802C439.454 691.679 440.798 712.338 417.671 719.817C390.893 723.117 390.246 699.366 414.526 693.802Z" fill="#FFAFD3"/>
<path d="M397.695 161.879C400.851 161.576 404.024 162.279 406.761 163.888C413.225 167.605 412.507 177.392 408.758 182.926C404.677 188.943 400.666 191.742 393.641 193.371C392.047 193.565 388.662 193.421 386.932 193.397C386.823 193.333 386.709 193.268 386.6 193.204L386.05 192.872C370.531 183.641 384.2 165.017 397.695 161.879Z" fill="#FFAFD3"/>
<path d="M398.566 497.414C418.515 498.306 413.046 519.327 400.699 526.205C398.087 527.661 395.546 528.343 392.711 529.194C390.262 529.674 385.936 528.807 384.151 527.628C374.895 521.518 380.69 507.18 388.096 501.984C392.509 498.884 393.951 498.469 398.566 497.414Z" fill="#FFAFD3"/>
<path d="M65.266 -6.11399C84.9323 -7.50875 84.8354 19.8865 60.5852 25.6244C50.3861 27.6739 43.7104 17.9987 48.3488 8.49677C52.381 0.237158 57.1908 -2.71481 65.266 -6.11399Z" fill="#FFAFD3"/>
<path d="M397.673 -6.15807C399.817 -6.4467 405.4 -5.19072 406.859 -3.70824C418.874 8.51652 406.07 22.9701 393.358 25.4153C388.069 26.6877 381.425 24.7262 379.912 18.8779C377.001 7.63122 387.547 -3.58228 397.673 -6.15807Z" fill="#FFAFD3"/>
<path d="M231.613 78.4185C240.973 77.5959 244.224 82.4777 246.49 90.6396C243.148 100.068 238.735 106.494 228.606 109.054C205.307 112.334 208.912 84.6362 231.613 78.4185Z" fill="#FFAFD3"/>
<path d="M83.807 190.371C85.1673 190.322 86.5283 190.309 87.8892 190.331C99.4568 190.627 101.611 196.496 100.991 206.642C95.9628 213.155 89.7029 215.585 81.8992 217.374C59.6569 218.919 57.8921 195.217 83.807 190.371Z" fill="#FFAFD3"/>
<path d="M395.671 329.955C413.857 329.115 416.474 342.793 405.194 354.758C402.076 358.066 399.17 359.118 394.92 360.787C373.954 365.76 374.623 337.579 395.671 329.955Z" fill="#FFAFD3"/>
<path d="M64.9961 665.408C70.7565 665.048 71.4296 665.473 76.5893 668.081C83.5458 680.78 75.3682 692.972 62.5022 695.994C59.2879 696.109 55.3559 696.551 52.6198 695.083C40.6719 688.69 49.5204 672.641 58.3612 667.884C60.7561 666.597 62.5501 666.1 64.9961 665.408Z" fill="#FFAFD3"/>
<path d="M63.8713 833.436C87.2145 831.701 82.9309 856.898 62.8554 863.913C59.492 864.088 55.4854 864.399 52.6242 862.904C41.6633 857.182 48.4043 842.698 56.1193 837.298C59.3815 835.012 60.2277 834.603 63.8713 833.436Z" fill="#FFAFD3"/>
<path d="M416.403 525.839C436.586 522.408 442.245 548.079 415.799 552.062C388.896 553.84 391.971 529.914 416.403 525.839Z" fill="#FFAFD3"/>
<path d="M396.476 665.38C418.433 663.542 415.582 689.345 395.415 695.88C392.237 696.054 388.015 696.534 385.261 695.236C374.269 690.059 380.44 675.516 387.715 669.903C391.171 667.241 392.499 666.668 396.476 665.38Z" fill="#FFAFD3"/>
<path d="M396.406 833.376C420.169 831.772 413.938 858.245 395.013 863.831C372.653 867.399 375.178 840.031 396.406 833.376Z" fill="#FFAFD3"/>
<path d="M83.8979 525.795C84.9013 525.703 85.9085 525.654 86.9157 525.637C93.3052 525.588 96.5462 527.939 100.848 532.118C102.892 544.643 94.8386 550.054 83.7509 552.089C55.9936 553.016 60.0035 530.945 83.8979 525.795Z" fill="#FFAFD3"/>
<path d="M194.399 244.255C195.905 244.08 197.431 244.246 198.864 244.74C210.892 248.81 208.198 262.65 201.048 269.865C197.577 273.368 195.749 274.175 191.202 276.122C188.39 276.501 186.18 275.493 183.585 274.541C179.859 269.983 179.281 268.513 177.525 262.822C179.814 252.721 184.569 247.247 194.399 244.255Z" fill="#FFAFD3"/>
<path d="M192.497 580.314C195.024 580.046 197.505 580.199 200.048 580.265C214.173 590.002 205.47 605.582 192.804 610.758C190.541 610.889 187.947 610.889 185.652 610.933C170.867 601.528 179.204 585.43 192.497 580.314Z" fill="#FFAFD3"/>
<path d="M27.3863 495.702C28.0763 495.67 28.7668 495.652 29.4579 495.648C34.4097 495.636 36.3388 498.205 39.7027 501.567C43.5096 513.316 36.9629 522.307 26.5358 527.165C6.99469 529.259 7.43383 503.893 27.3863 495.702Z" fill="#FFAFD3"/>
<path d="M192.613 76.8404C213.219 74.7882 211.184 99.802 191.652 108.08C183.03 110.396 179.473 101.2 177.503 94.7631C179.793 85.9907 184.16 80.3824 192.613 76.8404Z" fill="#FFAFD3"/>
<path d="M25.8545 663.804L32.645 663.504C48.4587 673.781 39.6738 687.397 27.0522 694.669C10.9664 699.557 4.71521 674.654 25.8545 663.804Z" fill="#FFAFD3"/>
<path d="M358.777 663.766C360.475 663.607 364.023 663.733 365.878 663.749C380.195 673.716 371.5 688.668 358.913 694.756C342.915 699.578 337.463 672.107 358.777 663.766Z" fill="#FFAFD3"/>
<path d="M28.867 831.188C39.8181 830.484 43.4803 842.491 38.8952 850.946C35.165 857.82 31.4425 860.848 24.2237 863.373C19.7051 863.384 14.029 859.478 12.8689 855.005C9.81398 843.217 18.2587 834.178 28.867 831.188Z" fill="#FFAFD3"/>
<path d="M28.4953 327.647C46.718 328.138 44.1006 354.156 25.0966 359.232C22.7485 359.252 20.3189 358.923 17.972 358.678C4.86382 346.736 15.2974 332.796 28.4953 327.647Z" fill="#FFAFD3"/>
<path d="M360.715 495.728C362.445 495.368 365.699 495.955 367.016 496.946C380.054 506.733 369.791 523.81 357.477 527.323C351.426 527.672 346.871 525.686 345.244 519.259C344.02 514.507 344.814 509.458 347.448 505.321C350.441 500.626 355.251 496.949 360.715 495.728Z" fill="#FFAFD3"/>
<path d="M192.181 748.336C214.165 746.23 210.413 771.182 192.465 778.557C188.192 779.234 187.204 778.655 183.266 777.123C179.652 772.857 179.024 771.356 177.373 765.961C179.448 757.244 183.861 751.745 192.181 748.336Z" fill="#FFAFD3"/>
<path d="M360.644 327.664C370.994 325.936 375.918 340.086 370.999 348.067C367.44 353.838 365.307 357.051 358.63 359.311C356.269 359.316 353.358 359.444 351.203 358.513C348.553 357.389 346.474 355.237 345.435 352.549C341.141 341.443 350.729 331.161 360.644 327.664Z" fill="#FFAFD3"/>
<path d="M30.956 160.367C35.7419 161.911 36.4422 162.947 39.8649 166.656C40.118 167.967 40.3362 169.285 40.5195 170.607C42.0274 181.999 32.7512 190.843 21.9258 192.176C19.2828 191.624 17.4703 190.205 15.1614 188.744C8.40792 174.204 15.4972 162.244 30.956 160.367Z" fill="#FFAFD3"/>
<path d="M360.622 831.194C379.412 830.872 376.043 855.278 356.933 863.144C355.279 863.586 351.91 862.62 350.55 861.802C342.883 857.176 343.59 844.717 348.781 838.574C352.672 833.976 355.453 832.748 360.622 831.194Z" fill="#FFAFD3"/>
<path d="M359 160.8C379.983 159.686 375.913 184.641 358.168 191.583C353.379 192.577 351.687 191.334 347.562 189.095C341.071 175.817 345.963 166.288 359 160.8Z" fill="#FFAFD3"/>
<path d="M28.4578 -7.14173C46.1918 -8.00953 44.4391 16.6882 25.8263 23.8829C4.98571 24.7392 9.66435 -3.46963 28.4578 -7.14173Z" fill="#FFAFD3"/>
<path d="M361.455 -7.14943C366.319 -7.35634 367.887 -5.50302 371.326 -2.44059C375.537 10.543 369.949 19.9106 357.357 23.9397C352.525 24.082 351.769 23.7707 347.584 21.4073C341.277 8.09249 346.79 -4.2088 361.455 -7.14943Z" fill="#FFAFD3"/>
<path d="M72.8542 55.0794C89.095 52.6394 101.684 71.9302 74.8262 78.4387C50.3796 79.3573 48.6018 59.383 72.8542 55.0794Z" fill="#FFAFD3"/>
<path d="M240.158 139.15C248.341 138.369 260.92 143.727 255.124 154.158C251.984 159.807 244.532 161.423 238.643 162.765C229.438 161.678 224.453 160.727 220.772 151.437C224.999 142.153 230.323 139.978 240.158 139.15Z" fill="#FFAFD3"/>
<path d="M405.134 55.0996C421.377 52.6672 433.865 71.9444 407.006 78.4038C382.405 79.2237 381.501 58.6945 405.134 55.0996Z" fill="#FFAFD3"/>
<path d="M405.417 726.074C424.816 724.83 431.819 744.556 406.2 749.345C384.467 750.96 379.988 729.511 405.417 726.074Z" fill="#FFAFD3"/>
<path d="M236.989 810.05C260.693 808.037 263.682 829.492 240.997 832.754C230.218 833.665 224.95 831.843 220.616 821.8C224.566 814.577 228.727 811.452 236.989 810.05Z" fill="#FFAFD3"/>
<path d="M74.7354 390.637C93.6224 389.044 98.2162 412.534 71.6935 413.693L68.6278 413.463C52.9246 412.351 51.2214 397.884 65.2029 392.364C68.3791 391.111 71.3556 390.958 74.7354 390.637Z" fill="#FFAFD3"/>
<path d="M408.622 390.673C429.583 392.098 426.835 413.037 403.643 413.8C394.468 413.133 382.007 409.205 390.888 396.981C394.73 391.692 402.462 391.053 408.622 390.673Z" fill="#FFAFD3"/>
<path d="M238.869 641.989C255.16 639.42 267.922 659.554 239.958 665.337C217.607 666.531 213.979 647.182 238.869 641.989Z" fill="#FFAFD3"/>
<path d="M72.5865 558.63C79.1076 557.473 88.3343 560.184 90.0234 567.45C90.5844 569.856 90.1088 572.387 88.7131 574.422C85.6751 578.912 79.2812 580.652 74.2092 581.454C51.4254 583.423 48.1937 562.072 72.5865 558.63Z" fill="#FFAFD3"/>
<path d="M73.905 726.096C93.894 725.326 98.0296 744.305 72.8717 749.722C49.5139 748.903 50.4427 728.01 73.905 726.096Z" fill="#FFAFD3"/>
<path d="M404.878 558.597C420.952 555.52 434.464 574.908 406.93 581.563C386.089 583.718 378.487 563.463 404.878 558.597Z" fill="#FFAFD3"/>
<path d="M70.7745 223.101C76.2955 222.675 79.9756 222.325 85.0052 225.582C89.8117 228.694 92.0683 234.624 88.2391 239.48C85.2158 243.314 80.3146 244.939 75.6496 245.672C51.4929 247.355 47.8264 228.513 70.7745 223.101Z" fill="#FFAFD3"/>
<path d="M403.719 223.021C411.446 222.147 414.058 223.769 420.561 227.654C426.753 237.863 418.009 243.859 408.763 245.467C403.888 246.161 397.347 245.977 392.988 243.515C388.309 240.871 386.698 235.134 389.696 230.579C393.064 225.472 398.239 224.366 403.719 223.021Z" fill="#FFAFD3"/>
<path d="M239.118 307.163C247.682 306.71 252.604 308.005 256.68 316.167C256.332 318.449 255.708 320.471 255.092 322.688C250.733 327.41 245.966 329.011 239.74 329.438C214.785 329.715 216.216 309.304 239.118 307.163Z" fill="#FFAFD3"/>
<path d="M180.746 -22H217.882C211.589 -0.566544 195.549 21.6273 184.646 -12.3513C183.601 -15.609 182.241 -18.9293 180.746 -22Z" fill="#FFAFD3"/>
<path d="M63.9726 877C65.6154 871.321 68.6485 867.263 73.8185 864.524C81.4682 860.471 96.0706 858.693 100.404 868.299C101.506 870.738 101.37 874.376 101.4 877H63.9726Z" fill="#FFAFD3"/>
<path d="M396.672 877C398.637 864.742 412.785 859.893 423.695 861.917C426.993 862.528 428.505 863.668 431.264 865.435C433.604 869.685 434.692 871.927 433.642 877H396.672Z" fill="#FFAFD3"/>
<path d="M-7.48415 877C-2.64553 867.895 11.0933 866.559 20.2389 866.641C29.6468 866.723 39.9405 870.323 46.7702 877H-7.48415Z" fill="#FFAFD3"/>
<path d="M324.838 877C327.973 871.861 332.103 869.51 337.882 868.163C352.095 864.846 367.957 866.33 378.818 877H324.838Z" fill="#FFAFD3"/>
</g>
<defs>
<clipPath id="clip0_31_557">
<rect width="875" height="899" fill="white" transform="translate(-232 -22)"/>
</clipPath>
</defs>
</svg>
